<?xml version="1.0" encoding="UTF-8"?>
<svg width="505px" height="230px" viewBox="0 0 505 230" version="1.1" xmlns="http://www.w3.org/2000/svg" xmlns:xlink="http://www.w3.org/1999/xlink">
    <!-- Generator: Sketch 51.3 (57544) - http://www.bohemiancoding.com/sketch -->
    <title>stephanie-vance-logo_white</title>
    <desc>Created with Sketch.</desc>
    <defs></defs>
    <g id="Home" stroke="none" stroke-width="1" fill="none" fill-rule="evenodd">
        <g id="Desktop-HD" transform="translate(-166.000000, -79.000000)">
            <g id="stephanie-vance-logo_white" transform="translate(168.000000, 81.000000)">
                <g id="Group" transform="translate(36.000000, 25.000000)" fill="#FFFFFF" fill-rule="nonzero">
                    <path d="M0.9,41.7 L3.8,36.7 C9,40.7 15.9,43 23.2,43 C32.8,43 37.9,40.1 37.9,34.6 C37.9,30.2 33.8,28.3 22.8,27.5 C8.4,26.5 2.7,22.9 2.7,14.6 C2.7,5.9 10.1,0.7 22.6,0.7 C30,0.7 36.4,2.6 41.4,6.3 L38.7,11.3 C34.3,8 28.6,6.3 22.1,6.3 C14,6.2 9,9.3 9,14.4 C9,18.8 13.1,20.7 24.1,21.5 C38.5,22.5 44.2,26.1 44.2,34.4 C44.2,43.6 36.7,48.6 23.2,48.6 C14.5,48.5 6.5,46.1 0.9,41.7 Z" id="Shape"></path>
                    <polygon id="Shape" points="90.3 6.8 71.7 6.8 71.7 47.7 65.6 47.7 65.6 6.8 47 6.8 47 1.5 90.2 1.5 90.2 6.8"></polygon>
                    <polygon id="Shape" points="103.4 6.8 103.4 21.7 133.2 21.7 133.2 27 103.4 27 103.4 42.4 137.6 42.4 137.6 47.7 97.3 47.7 97.3 1.5 137.6 1.5 137.6 6.8"></polygon>
                    <path d="M189.8,15.6 C189.8,24.6 184.2,29.7 174.1,29.7 L153.7,29.7 L153.7,47.7 L147.6,47.7 L147.6,1.5 L174,1.5 C184.1,1.5 189.8,6.6 189.8,15.6 Z M183.5,15.6 C183.5,9.7 180,6.8 172.9,6.8 L153.7,6.8 L153.7,24.5 L172.9,24.5 C180,24.5 183.5,21.5 183.5,15.6 Z" id="Shape"></path>
                    <polygon id="Shape" points="243.1 1.5 243.1 47.7 237 47.7 237 27 206 27 206 47.7 199.9 47.7 199.9 1.5 206 1.5 206 21.7 237 21.7 237 1.5"></polygon>
                    <path d="M289.8,35.6 L264.4,35.6 L258.7,47.8 L252.3,47.8 L274.1,1.6 L280.3,1.6 L302.1,47.8 L295.4,47.8 L289.8,35.6 Z M266.9,30.2 L287.4,30.2 L277.2,8.1 L266.9,30.2 Z" id="Shape"></path>
                    <polygon id="Shape" points="354.5 1.5 354.5 47.7 348.7 47.7 317.2 7.7 317.2 47.7 311.3 47.7 311.3 1.5 319.7 1.5 348.5 38.1 348.5 1.5"></polygon>
                    <polygon id="Shape" points="367.6 1.5 373.7 1.5 373.7 47.7 367.6 47.7"></polygon>
                    <polygon id="Shape" points="392.9 6.8 392.9 21.7 422.7 21.7 422.7 27 392.9 27 392.9 42.4 427.1 42.4 427.1 47.7 386.8 47.7 386.8 1.5 427.1 1.5 427.1 6.8"></polygon>
                </g>
                <g id="Group" transform="translate(16.000000, 89.000000)" fill="#FFFFFF" fill-rule="nonzero">
                    <polygon id="Shape" points="89.3 1.7 49.2 88.2 40.6 88.2 0.7 1.7 10.1 1.7 45.2 77.9 80.3 1.7 89.3 1.7"></polygon>
                    <path d="M151.6,63.6 L101.6,63.6 L90,88.2 L81,88.2 L122.6,1.7 L131.2,1.7 L172.8,88.2 L163.5,88.2 L151.6,63.6 Z M105.2,56.1 L148.1,56.1 L126.7,11 L105.2,56.1 Z" id="Shape"></path>
                    <polygon id="Shape" points="270.3 1.7 270.3 88.2 262.2 88.2 199.1 10.5 199.1 88.2 190.8 88.2 190.8 1.7 202.5 1.7 262 75.1 262 1.7"></polygon>
                    <path d="M286.6,45.1 C286.6,18 305.4,0.2 334.3,0.2 C346.4,0.2 357.1,3.3 366,9.5 L362.6,16.7 C353.8,10.7 344.5,8.1 334.5,8.1 C310.7,8.1 295.5,22.7 295.5,44.8 C295.5,67.3 311.1,81.8 335.7,81.8 C347.1,81.8 356.6,78.7 365.5,72.1 L369.3,79.3 C360.8,85.9 348.4,89.6 335.1,89.6 C305.6,89.7 286.6,72 286.6,45.1 Z" id="Shape"></path>
                    <polygon id="Shape" points="393.9 9.2 393.9 40.6 451.4 40.6 451.4 48.1 393.9 48.1 393.9 80.7 459.6 80.7 459.6 88.2 385.3 88.2 385.3 1.7 459.6 1.7 459.6 9.2"></polygon>
                </g>
                <g id="Group" transform="translate(97.000000, 201.000000)" fill="#FFFFFF" fill-rule="nonzero">
                    <path d="M0.5,13.6 C0.5,5.4 6.1,0.2 14.9,0.2 C18.5,0.2 21.6,1.1 24.4,2.9 L22.9,6.7 C20.3,5.1 17.8,4.4 15.1,4.4 C9,4.4 5.2,8.1 5.2,13.6 C5.2,19.3 9.1,22.8 15.4,22.8 C18.4,22.8 21.1,22 23.6,20.3 L25.3,24.1 C22.8,25.9 19.2,26.9 15.1,26.9 C6.1,26.9 0.5,21.8 0.5,13.6 Z" id="Shape"></path>
                    <path d="M32.5,13.6 C32.5,5.6 38.1,0.3 46.6,0.3 C55.1,0.3 60.7,5.6 60.7,13.6 C60.7,21.6 55.1,26.9 46.6,26.9 C38.2,26.9 32.5,21.5 32.5,13.6 Z M56.1,13.6 C56.1,8.1 52.3,4.4 46.7,4.4 C41.1,4.4 37.3,8.1 37.3,13.6 C37.3,19.1 41.1,22.8 46.7,22.8 C52.3,22.8 56.1,19.1 56.1,13.6 Z" id="Shape"></path>
                    <path d="M69.6,17 L69.6,0.7 L74.2,0.7 L74.2,16.3 C74.2,20.7 76.7,22.9 81.8,22.9 C86.8,22.9 89.4,20.7 89.4,16.3 L89.4,0.7 L93.8,0.7 L93.8,17 C93.8,23.3 89.4,26.9 81.7,26.9 C74,26.9 69.6,23.3 69.6,17 Z" id="Shape"></path>
                    <polygon id="Shape" points="128.5 0.7 128.5 26.5 124.2 26.5 108.4 5.9 108.4 26.5 104 26.5 104 0.7 109.8 0.7 124.2 19.4 124.2 0.7"></polygon>
                    <path d="M137.4,23.2 L139.4,19.6 C142.4,21.8 146.1,22.9 150.1,22.9 C154.9,22.9 157.4,21.6 157.4,19.1 C157.4,17 155.5,16.1 149.8,15.7 C141.5,15.1 138.5,13 138.5,8.2 C138.5,3.2 142.7,0.3 149.8,0.3 C154,0.3 157.6,1.4 160.6,3.4 L158.8,7 C156.3,5.2 153.2,4.3 149.8,4.3 C145.7,4.3 143.2,5.7 143.2,8 C143.2,10.1 145,11 150.7,11.4 C159,12 162,14.1 162,18.9 C162,24.1 157.8,26.9 150.1,26.9 C145.1,26.9 140.7,25.6 137.4,23.2 Z" id="Shape"></path>
                    <polygon id="Shape" points="175.7 4.6 175.7 11.5 191.5 11.5 191.5 15.4 175.7 15.4 175.7 22.5 194 22.5 194 26.4 171.2 26.4 171.2 0.6 194 0.6 194 4.5 175.7 4.5"></polygon>
                    <polygon id="Shape" points="225.1 22.5 225.1 26.4 203 26.4 203 0.6 207.6 0.6 207.6 22.4 225.1 22.4"></polygon>
                    <polygon id="Shape" points="233.8 0.7 238.4 0.7 238.4 26.5 233.8 26.5"></polygon>
                    <polygon id="Shape" points="273.6 0.7 273.6 26.5 269.3 26.5 253.5 5.9 253.5 26.5 249.1 26.5 249.1 0.7 254.9 0.7 269.3 19.4 269.3 0.7"></polygon>
                    <path d="M308.6,23.7 C305.9,25.8 302.1,26.9 297.7,26.9 C288.5,26.9 282.8,21.8 282.8,13.6 C282.8,5.4 288.5,0.2 297.4,0.2 C301,0.2 304.3,1.1 307,2.9 L305.5,6.7 C302.8,5.1 300.3,4.4 297.5,4.4 C291.2,4.4 287.3,8.1 287.3,13.6 C287.3,19.3 291.3,22.8 297.8,22.8 C300,22.8 302,22.4 303.9,21.5 L303.9,16 L296.1,16 L296.1,12 L308.4,12 L308.4,23.7 L308.6,23.7 Z" id="Shape"></path>
                </g>
                <polyline id="Shape" stroke="#FFFFFF" stroke-width="3.7422" points="77.4 214.2 0.3 214.2 0.3 0.1 500.2 0.1 500.2 214.2 424 214.2"></polyline>
            </g>
        </g>
    </g>
</svg>